<?xml version="1.0" encoding="utf-8"?>
<!-- Generator: Adobe Illustrator 19.1.0, SVG Export Plug-In . SVG Version: 6.00 Build 0)  -->
<svg version="1.1" id="Layer_1" xmlns="http://www.w3.org/2000/svg" xmlns:xlink="http://www.w3.org/1999/xlink" x="0px" y="0px"
	 viewBox="0 0 292.2 272.1" enable-background="new 0 0 292.2 272.1" xml:space="preserve">
<path fill="#FFFFFF" d="M174.1,3.1v171.5h-33.6V121c0-36,1.2-60.8,1-60.8h-0.2c-0.2,0-12.3,21.1-15.2,26l-26.7,46.1H81.7L55,86.2
	c-3.2-4.9-15.2-26-15.4-26h-0.2c-0.2,0,1.2,24.7,1.2,60.8v53.7H7V3.1h32.1l35.5,58.8C87.8,83.7,90,89.1,90.3,89.1h0.2
	c0.2,0,2.5-5.4,15.7-27.2L142,3.1H174.1z"/>
<path fill="#FFFFFF" d="M259.8,117.7L237,78.6c-0.5,0-0.8,0-1.3,0h-17.4v39.1h-22.8V3.1h40.1c28.2,0,45,15.2,45,38.3
	c0,15.7-7.7,27.2-21.6,32.9l26.2,43.4H259.8z M218.3,58.3h20.3c12.6,0,18.5-8.2,18.5-16.9c0-9-6.1-17-18.5-17h-20.3V58.3z"/>
<path fill="#FFFFFF" d="M223.5,160.7c0-9.3,7.6-16.7,16.9-16.7c9.3,0,16.9,7.6,16.9,16.7c0,9.6-7.6,16.9-16.9,16.9
	C231.1,177.6,223.5,170.2,223.5,160.7z"/>
<path fill="#FFFFFF" d="M39.9,228.3c-1.3-5.6-6.2-8.5-11.1-8.5c-5.1,0-8.4,2.5-8.4,5.8c0,4.5,6.3,6.1,13.4,8.5
	c8.2,2.8,17.5,7.1,17.5,17.1c0,10-8.6,17.1-21.4,17.1c-11.8,0-19.8-6.6-22.9-16.8l10.7-2.9c1.2,5,5.7,9.8,12.6,9.8
	c6,0,9.1-3,9.1-6.7c0-5.7-7.6-7-15.5-9.8C17.3,239.5,9,236.1,9,226.3c0-8.7,8.6-16.2,20.5-16.2c10.5,0,18.8,6.4,21.2,15.2
	L39.9,228.3z"/>
<path fill="#FFFFFF" d="M95.4,211.3v10.4H77.8v45.6H66.7v-45.6H49.2v-10.4H95.4z"/>
<path fill="#FFFFFF" d="M125.1,256.6h-24.2l-4.2,10.7h-12l23-56h10.5l23,56h-12L125.1,256.6z M121.3,246.7l-5.5-14.2
	c-1.2-3.1-2.6-7.8-2.7-7.8h-0.1c-0.1,0-1.5,4.6-2.7,7.8l-5.5,14.2H121.3z"/>
<path fill="#FFFFFF" d="M178.8,227.9c-3-4.2-8.6-6.8-14.1-6.8c-10.5,0-17.4,7.5-17.4,18.1c0,11,7.4,18,17.4,18
	c6.4,0,12.3-3.4,15.1-8.2l11.2,3c-4.6,9.9-14.6,16.4-26.3,16.4c-16.1,0-29-12.2-29-29.1s13-29.1,29-29.1c11,0,20.5,5.8,25.4,14.8
	L178.8,227.9z"/>
<path fill="#FFFFFF" d="M239.7,211.3v56h-11.1v-23.1h-24.2v23.1h-11.1v-56h11.1v22.4h24.2v-22.4H239.7z"/>
<path fill="#FFFFFF" d="M286.8,256.9v10.4h-40.1v-56h39.6v10.4h-28.5v11.9h22.5v9.8h-22.5v13.5H286.8z"/>
</svg>
